<?xml version="1.0" encoding="iso-8859-1"?>
<svg height="800px" width="800px" version="1.1" id="Layer_1" xmlns="http://www.w3.org/2000/svg" xmlns:xlink="http://www.w3.org/1999/xlink" 
	 viewBox="0 0 512 512" xml:space="preserve">
<g transform="translate(1 1)">
	<g>
		<path style="fill:#FFDD09;" d="M434.309,511c-5.12,0-8.533-3.413-8.533-8.533V365.933c0-5.12,3.413-8.533,8.533-8.533
			s8.533,3.413,8.533,8.533v136.533C442.842,507.587,439.429,511,434.309,511z"/>
		<path style="fill:#FFDD09;" d="M434.309,374.467c-33.28,0-59.733-26.453-59.733-59.733v-68.267c0-5.12,3.413-8.533,8.533-8.533
			c5.12,0,8.533,3.413,8.533,8.533v68.267c0,23.893,18.773,42.667,42.667,42.667c23.893,0,42.667-18.773,42.667-42.667v-68.267
			c0-5.12,3.413-8.533,8.533-8.533s8.533,3.413,8.533,8.533v68.267C494.042,348.013,467.589,374.467,434.309,374.467z"/>
		<path style="fill:#FFDD09;" d="M417.242,371.907c-5.12,0-8.533-3.413-8.533-8.533V255c0-5.12,3.413-8.533,8.533-8.533l0,0
			c5.12,0,8.533,3.413,8.533,8.533v108.373C425.775,367.64,422.362,371.907,417.242,371.907L417.242,371.907z"/>
		<path style="fill:#FFDD09;" d="M451.375,371.907c-5.12,0-8.533-3.413-8.533-8.533V255c0-5.12,3.413-8.533,8.533-8.533l0,0
			c5.12,0,8.533,3.413,8.533,8.533v108.373C459.909,367.64,456.495,371.907,451.375,371.907L451.375,371.907z"/>
	</g>
	<path style="fill:#1CD759;" d="M255.109,349.72v16.213c0,18.773-15.36,34.133-34.133,34.133s-34.133-15.36-34.133-34.133V349.72
		c-76.8,8.533-136.533,73.387-136.533,152.747l0,0h341.333l0,0C391.642,423.107,331.909,358.253,255.109,349.72"/>
	<path style="fill:#15A143;" d="M255.109,349.72v5.12c64,18.773,110.933,77.653,110.933,147.627l0,0h25.6l0,0
		C391.642,423.107,331.909,358.253,255.109,349.72"/>
	<path style="fill:#FFFFFF;" d="M186.842,349.72v5.12c-64,18.773-110.933,77.653-110.933,147.627l0,0h-25.6l0,0
		C50.309,423.107,110.042,358.253,186.842,349.72"/>
	<path style="fill:#FFDD09;" d="M314.842,502.467H127.109v-41.813c0-14.507,11.947-26.453,26.453-26.453h134.827
		c14.507,0,26.453,11.947,26.453,26.453V502.467z"/>
	<path style="fill:#FD9808;" d="M289.242,434.2h-25.6c14.507,0,26.453,11.947,26.453,26.453v41.813h25.6v-41.813
		C315.695,446.147,303.749,434.2,289.242,434.2"/>
	<g>
		<path style="fill:#FFDD09;" d="M220.975,306.2c-11.947,0-23.893-2.56-34.133-6.827v66.56c0,18.773,15.36,34.133,34.133,34.133
			s34.133-15.36,34.133-34.133v-66.56C244.869,303.64,232.922,306.2,220.975,306.2"/>
		<path style="fill:#FFDD09;" d="M139.909,127c-2.56,7.68-4.267,17.067-4.267,25.6v68.267c0,46.933,38.4,85.333,85.333,85.333
			s85.333-38.4,85.333-85.333V152.6c0-8.533-1.707-17.92-4.267-25.6H139.909z"/>
	</g>
	<path style="fill:#FD9808;" d="M302.042,127h-25.6c2.56,7.68,4.267,17.067,4.267,25.6v68.267c0,42.667-31.573,77.653-72.533,84.48
		c4.267,0.853,8.533,0.853,12.8,0.853c46.933,0,85.333-38.4,85.333-85.333V152.6C306.309,144.067,304.602,134.68,302.042,127"/>
	<g>
		<path style="fill:#FCC309;" d="M314.842,161.133c-3.413,0-5.973,0.853-8.533,1.707v47.787c2.56,0.853,5.12,1.707,8.533,1.707
			c14.507,0,25.6-11.093,25.6-25.6C340.442,172.227,329.349,161.133,314.842,161.133"/>
		<path style="fill:#FCC309;" d="M127.109,212.333c3.413,0,5.973-0.853,8.533-1.707V162.84c-2.56-0.853-5.12-1.707-8.533-1.707
			c-14.507,0-25.6,11.093-25.6,25.6C101.509,201.24,112.602,212.333,127.109,212.333"/>
		<path style="fill:#FCC309;" d="M382.255,107.373c-37.547-21.333-70.827-48.64-102.4-78.507
			c-14.507-12.8-34.987-21.333-58.88-21.333s-44.373,8.533-58.88,21.333c-31.573,29.013-64.853,57.173-102.4,78.507L24.709,127
			h68.267h256h68.267L382.255,107.373z"/>
	</g>
	<path style="fill:#FD9808;" d="M382.255,107.373c-37.547-21.333-70.827-48.64-102.4-78.507
		c-14.507-12.8-34.987-21.333-58.88-21.333c-5.973,0-11.947,0.853-17.067,1.707c16.213,2.56,31.573,10.24,41.813,19.627
		c31.573,29.013,64.853,57.173,102.4,78.507L383.109,127h34.133L382.255,107.373z"/>
	<path style="fill:#FFFFFF;" d="M59.695,107.373c37.547-21.333,70.827-48.64,102.4-78.507c14.507-12.8,34.987-21.333,58.88-21.333
		c5.973,0,11.947,0.853,17.067,1.707c-16.213,2.56-31.573,10.24-41.813,19.627c-31.573,29.013-64.853,57.173-102.4,78.507
		L58.842,127H24.709L59.695,107.373z"/>
	<path d="M391.642,511H50.309c-5.12,0-8.533-3.413-8.533-8.533c0-82.773,62.293-151.893,144.213-161.28
		c2.56,0,5.12,0.853,6.827,1.707c1.707,0.853,2.56,4.267,2.56,5.973v17.067c0,14.507,11.093,25.6,25.6,25.6
		c14.507,0,25.6-11.093,25.6-25.6V349.72c0-2.56,0.853-5.12,2.56-5.973c1.707-0.853,4.267-2.56,6.827-1.707
		c81.92,8.533,144.213,77.653,144.213,160.427C400.175,507.587,396.762,511,391.642,511z M58.842,493.933h324.267
		c-4.267-67.413-52.907-122.88-119.467-133.973v5.973c0,23.893-18.773,42.667-42.667,42.667s-42.667-18.773-42.667-42.667v-5.973
		C112.602,371.053,63.109,426.52,58.842,493.933z"/>
	<path d="M220.975,408.6c-23.893,0-42.667-18.773-42.667-42.667v-66.56c0-2.56,1.707-5.973,4.267-6.827
		c2.56-0.853,5.12-1.707,7.68-0.853c19.627,8.533,41.813,8.533,61.44,0c2.56-0.853,5.973-0.853,7.68,0.853
		c2.56,1.707,4.267,4.267,4.267,6.827v66.56C263.642,389.827,244.869,408.6,220.975,408.6z M195.375,311.32v54.613
		c0,14.507,11.093,25.6,25.6,25.6c14.507,0,25.6-11.093,25.6-25.6V311.32C230.362,315.587,211.589,315.587,195.375,311.32z"/>
	<path d="M417.242,135.533H24.709c-4.267,0-7.68-2.56-8.533-5.973c-0.853-3.413,0.853-7.68,4.267-9.387l34.987-19.627
		c31.573-17.92,63.147-41.813,100.693-76.8C172.335,7.533,196.229-1,220.975-1s48.64,8.533,64.853,23.893
		c37.547,34.987,69.12,58.88,100.693,76.8l34.987,19.627c3.413,1.707,5.12,5.973,4.267,9.387
		C424.922,132.973,421.509,135.533,417.242,135.533z M57.135,118.467h327.68l-6.827-4.267l0,0
		c-33.28-18.773-64.853-43.52-104.107-79.36c-12.8-11.947-32.427-18.773-52.907-18.773s-40.107,6.827-52.907,18.773
		C128.815,70.68,97.242,95.427,63.962,114.2L57.135,118.467z"/>
	<path d="M220.975,314.733c-52.053,0-93.867-41.813-93.867-93.867V152.6c0-9.387,1.707-18.773,4.267-28.16
		c0.853-3.413,4.267-5.973,8.533-5.973h162.987c3.413,0,6.827,2.56,8.533,5.973c2.56,9.387,4.267,18.773,4.267,28.16v68.267
		C314.842,272.92,273.029,314.733,220.975,314.733z M145.882,135.533c-0.853,5.973-1.707,11.093-1.707,17.067v68.267
		c0,42.667,34.133,76.8,76.8,76.8s76.8-34.133,76.8-76.8V152.6c0-5.973-0.853-11.093-1.707-17.067H145.882z"/>
	<path d="M314.842,511H127.109c-5.12,0-8.533-3.413-8.533-8.533V434.2c0-5.12,3.413-8.533,8.533-8.533h187.733
		c5.12,0,8.533,3.413,8.533,8.533v68.267C323.375,507.587,319.962,511,314.842,511z M135.642,493.933h170.667v-51.2H135.642V493.933
		z"/>
	<path d="M289.242,442.733c-5.12,0-8.533-3.413-8.533-8.533v-75.093c0-5.12,3.413-8.533,8.533-8.533c5.12,0,8.533,3.413,8.533,8.533
		V434.2C297.775,439.32,294.362,442.733,289.242,442.733z"/>
	<path d="M152.709,442.733c-5.12,0-8.533-3.413-8.533-8.533v-75.093c0-5.12,3.413-8.533,8.533-8.533c5.12,0,8.533,3.413,8.533,8.533
		V434.2C161.242,439.32,157.829,442.733,152.709,442.733z"/>
	<path d="M314.842,220.867c-3.413,0-7.68-0.853-11.093-1.707s-5.973-4.267-5.973-7.68v-47.787c0-3.413,2.56-6.827,5.973-7.68
		c23.893-8.533,45.227,9.387,45.227,32.427C348.975,205.507,333.615,220.867,314.842,220.867z M314.842,169.667V203.8
		c9.387,0,17.067-7.68,17.067-17.067C331.909,177.347,324.229,169.667,314.842,169.667z"/>
	<path d="M127.109,220.867c-18.773,0-34.133-15.36-34.133-34.133c0-22.187,22.187-40.107,45.227-32.427
		c3.413,0.853,5.973,4.267,5.973,7.68v47.787c0,3.413-2.56,6.827-5.973,7.68C134.789,220.013,130.522,220.867,127.109,220.867z
		 M127.109,169.667c-9.387,0-17.067,7.68-17.067,17.067c0,9.387,7.68,17.067,17.067,17.067V169.667z"/>
	<path d="M425.775,511c-5.12,0-8.533-3.413-8.533-8.533V365.933c0-5.12,3.413-8.533,8.533-8.533s8.533,3.413,8.533,8.533v136.533
		C434.309,507.587,430.895,511,425.775,511z"/>
	<path d="M425.775,374.467c-33.28,0-59.733-26.453-59.733-59.733v-68.267c0-5.12,3.413-8.533,8.533-8.533s8.533,3.413,8.533,8.533
		v68.267c0,23.893,18.773,42.667,42.667,42.667c23.893,0,42.667-18.773,42.667-42.667v-68.267c0-5.12,3.413-8.533,8.533-8.533
		c5.12,0,8.533,3.413,8.533,8.533v68.267C485.509,348.013,459.055,374.467,425.775,374.467z"/>
	<path d="M408.709,371.907c-5.12,0-8.533-3.413-8.533-8.533V255c0-5.12,3.413-8.533,8.533-8.533l0,0c5.12,0,8.533,3.413,8.533,8.533
		v108.373C417.242,367.64,413.829,371.907,408.709,371.907L408.709,371.907z"/>
	<path d="M442.842,371.907c-5.12,0-8.533-3.413-8.533-8.533V255c0-5.12,3.413-8.533,8.533-8.533l0,0c5.12,0,8.533,3.413,8.533,8.533
		v108.373C451.375,367.64,447.962,371.907,442.842,371.907L442.842,371.907z"/>
	<path d="M169.775,476.867c-5.12,0-8.533-3.413-8.533-8.533c0-5.12,3.413-8.533,8.533-8.533h102.4l0,0
		c5.12,0,8.533,3.413,8.533,8.533c0,5.12-3.413,8.533-8.533,8.533H169.775L169.775,476.867z"/>
	<path d="M297.775,101.4c-5.12,0-8.533-3.413-8.533-8.533c0-42.667,34.133-76.8,76.8-76.8c5.12,0,8.533,3.413,8.533,8.533
		s-3.413,8.533-8.533,8.533c-33.28,0-59.733,26.453-59.733,59.733C306.309,97.987,302.895,101.4,297.775,101.4z"/>
</g>
</svg>